<svg xmlns="http://www.w3.org/2000/svg" width="24" height="24" viewBox="0 0 24 24" fill="none" stroke="currentColor" stroke-width="2" stroke-linecap="round" stroke-linejoin="round">
  <!-- Mapa -->
  <polygon points="3 6 9 3 15 6 21 3 21 18 15 21 9 18 3 21"/>
  <line x1="9" y1="3" x2="9" y2="18"/>
  <line x1="15" y1="6" x2="15" y2="21"/>
  
  <!-- Engranaje pequeño en esquina inferior derecha -->
  <g transform="translate(15, 15) scale(0.35)">
    <circle cx="12" cy="12" r="3"/>
    <path d="M12 1v6m0 6v6m5.196-13.196l-4.242 4.242m0 5.908l4.242 4.242M23 12h-6m-6 0H1m18.196-5.196l-4.242 4.242m0 5.908l4.242 4.242"/>
  </g>
</svg>
